<svg xmlns="http://www.w3.org/2000/svg" xmlns:xlink="http://www.w3.org/1999/xlink" version="1.1" width="1000" height="1000" viewBox="0 0 1000 1000" xml:space="preserve">
<desc>Created with Fabric.js 3.5.0</desc>
<defs>
</defs>
<rect x="0" y="0" width="100%" height="100%" fill="rgba(255,255,255,0)"/>
<g transform="matrix(37.2779 0 0 37.2779 425.3754 412.0533)" id="147789">
<path style="stroke: none; stroke-width: 0; stroke-dasharray: none; stroke-linecap: butt; stroke-dashoffset: 0; stroke-linejoin: miter; stroke-miterlimit: 4; is-custom-font: none; font-file-url: none; fill: rgb(57,112,228); fill-rule: nonzero; opacity: 1;" vector-effect="non-scaling-stroke" transform=" translate(-12, -12.1153)" d="M 11.1142 1.43752 C 11.6726 1.16175 12.3274 1.16175 12.8858 1.43752 L 19.9628 4.9333 C 20.5056 5.20144 20.8978 5.70105 21.0293 6.29205 L 22.7955 14.2294 C 22.925 14.8114 22.7882 15.4208 22.4222 15.8914 L 17.496 22.2276 C 17.1171 22.7149 16.5344 23 15.9171 23 H 8.08294 C 7.46563 23 6.88291 22.7149 6.504 22.2276 L 1.57778 15.8914 C 1.21185 15.4208 1.07497 14.8114 1.20446 14.2294 L 2.9707 6.29205 C 3.10221 5.70105 3.49436 5.20144 4.0372 4.9333 L 11.1142 1.43752 Z" stroke-linecap="round"/>
</g>
<g transform="matrix(1 0 0 1 430.5642 869.1734)" style="" id="91919">
		
<path xml:space="preserve" font-family="Alef" font-size="77" font-style="normal" font-weight="bold" style="stroke: none; stroke-width: 0; stroke-dasharray: none; stroke-linecap: butt; stroke-dashoffset: 0; stroke-linejoin: miter; stroke-miterlimit: 4; is-custom-font: none; font-file-url: none; fill: rgb(95,115,204); fill-rule: nonzero; opacity: 1; white-space: pre;" d="M-189.94 21.44L-187.16 14.83Q-184.04 16.03-180.49 16.84Q-176.93 17.65-172.76 17.65L-172.76 17.65Q-170.05 17.65-167.80 17.16Q-165.54 16.67-163.91 15.62Q-162.27 14.56-161.35 12.93Q-160.43 11.29-160.43 9.00L-160.43 9.00Q-160.43 6.52-161.43 5.05Q-162.42 3.59-164.23 2.65Q-166.03 1.71-168.59 1.07Q-171.14 0.43-174.27-0.36L-174.27-0.36Q-177.76-1.26-180.64-2.43Q-183.51-3.60-185.54-5.44Q-187.57-7.28-188.70-9.99Q-189.83-12.69-189.83-16.68L-189.83-16.68Q-189.83-19.35-188.95-21.45Q-188.06-23.56-186.56-25.12Q-185.06-26.68-183.08-27.77Q-181.11-28.86-178.95-29.54Q-176.78-30.22-174.53-30.52Q-172.27-30.82-170.24-30.82L-170.24-30.82Q-168.81-30.82-166.80-30.67Q-164.79-30.52-162.52-30.12Q-160.24-29.73-157.82-29.09Q-155.39-28.45-153.14-27.47L-153.14-27.47L-155.80-20.93Q-158.81-22.02-162.06-22.70Q-165.32-23.37-168.89-23.37L-168.89-23.37Q-171.14-23.37-173.02-23.02Q-174.90-22.66-176.28-21.87Q-177.65-21.08-178.40-19.80Q-179.15-18.52-179.15-16.72L-179.15-16.72Q-179.15-14.39-178.23-13.07Q-177.31-11.75-175.58-10.93Q-173.85-10.10-171.35-9.52Q-168.85-8.93-165.69-8.11L-165.69-8.11Q-162.23-7.21-159.32-5.98Q-156.41-4.76-154.28-2.83Q-152.16-0.89-150.95 1.97Q-149.75 4.83-149.75 9.00L-149.75 9.00Q-149.75 12.68-150.92 15.32Q-152.08 17.95-153.96 19.73Q-155.84 21.52-158.25 22.57Q-160.65 23.62-163.14 24.19Q-165.62 24.75-167.95 24.92Q-170.28 25.09-172.05 25.09L-172.05 25.09Q-173.78 25.05-175.94 24.87Q-178.10 24.68-180.47 24.26Q-182.84 23.85-185.26 23.15Q-187.69 22.46-189.94 21.44L-189.94 21.44ZM-136.67-5.85L-138.96-13.00Q-137.57-13.56-135.78-14.05Q-134.00-14.54-131.99-14.93Q-129.98-15.33-127.81-15.55Q-125.65-15.78-123.43-15.78L-123.43-15.78Q-120.31-15.78-117.59-15.29Q-114.86-14.80-113.06-13.67L-113.06-13.67Q-111.25-12.54-110.24-10.61Q-109.22-8.67-109.22-5.74L-109.22-5.74L-109.22 9.53Q-109.22 12.16-109.18 14.21Q-109.15 16.26-109.03 18.21L-109.03 18.21Q-108.96 18.93-108.88 19.51Q-108.81 20.09-108.71 20.64Q-108.62 21.18-108.49 21.78Q-108.36 22.38-108.17 23.10L-108.17 23.10Q-110.50 23.62-112.81 24.11Q-115.12 24.60-117.49 25.05L-117.49 25.05Q-117.91 24.00-118.15 22.89Q-118.39 21.78-118.58 20.35L-118.58 20.35L-119.15 20.35Q-120.46 21.71-121.78 22.61Q-123.09 23.51-124.52 24.08Q-125.95 24.64-127.49 24.87Q-129.04 25.09-130.73 25.09L-130.73 25.09Q-133.32 25.09-135.54 24.47Q-137.76 23.85-139.39 22.57Q-141.03 21.29-141.95 19.32Q-142.87 17.35-142.87 14.68L-142.87 14.68Q-142.87 12.42-142.40 10.65Q-141.93 8.89-141.07 7.50Q-140.20 6.10-139.00 5.05Q-137.80 4.00-136.33 3.21L-136.33 3.21Q-133.40 1.63-129.79 1.05Q-126.18 0.46-122.42 0.46L-122.42 0.46L-119.18 0.46L-119.18-4.42Q-119.18-5.81-119.62-6.62Q-120.05-7.43-120.78-7.84Q-121.52-8.26-122.49-8.39Q-123.47-8.52-124.60-8.52L-124.60-8.52Q-127.64-8.52-130.75-7.75Q-133.85-6.98-136.67-5.85L-136.67-5.85ZM-119.18 13.70L-119.18 5.99L-119.94 5.99Q-122.61 6.03-125.03 6.39Q-127.46 6.74-129.30 7.61Q-131.14 8.47-132.25 9.88Q-133.36 11.29-133.36 13.44L-133.36 13.44Q-133.36 15.80-131.99 17.08Q-130.61 18.36-128.13 18.36L-128.13 18.36Q-126.97 18.36-125.73 18.04Q-124.49 17.72-123.28 17.14Q-122.08 16.56-121.03 15.69Q-119.97 14.83-119.18 13.70L-119.18 13.70ZM-88.66-29.95L-88.66 8.85Q-88.66 11.97-88.60 14.08Q-88.54 16.18-88.39 17.76L-88.39 17.76Q-88.32 18.59-88.24 19.21Q-88.17 19.83-88.09 20.41Q-88.02 20.99-87.88 21.58Q-87.75 22.16-87.56 22.87L-87.56 22.87Q-90.05 23.62-92.53 24.17Q-95.01 24.72-97.60 25.09L-97.60 25.09Q-98.17 23.40-98.56 21.50Q-98.96 19.60-98.96 17.35L-98.96 17.35L-98.96-29.95L-88.66-29.95ZM-74.48-5.85L-76.77-13.00Q-75.38-13.56-73.60-14.05Q-71.81-14.54-69.80-14.93Q-67.79-15.33-65.63-15.55Q-63.46-15.78-61.25-15.78L-61.25-15.78Q-58.13-15.78-55.40-15.29Q-52.67-14.80-50.87-13.67L-50.87-13.67Q-49.06-12.54-48.05-10.61Q-47.03-8.67-47.03-5.74L-47.03-5.74L-47.03 9.53Q-47.03 12.16-47.00 14.21Q-46.96 16.26-46.85 18.21L-46.85 18.21Q-46.77 18.93-46.70 19.51Q-46.62 20.09-46.53 20.64Q-46.43 21.18-46.30 21.78Q-46.17 22.38-45.98 23.10L-45.98 23.10Q-48.31 23.62-50.63 24.11Q-52.94 24.60-55.31 25.05L-55.31 25.05Q-55.72 24.00-55.96 22.89Q-56.21 21.78-56.40 20.35L-56.40 20.35L-56.96 20.35Q-58.28 21.71-59.59 22.61Q-60.91 23.51-62.34 24.08Q-63.77 24.64-65.31 24.87Q-66.85 25.09-68.54 25.09L-68.54 25.09Q-71.13 25.09-73.35 24.47Q-75.57 23.85-77.21 22.57Q-78.84 21.29-79.76 19.32Q-80.68 17.35-80.68 14.68L-80.68 14.68Q-80.68 12.42-80.21 10.65Q-79.74 8.89-78.88 7.50Q-78.02 6.10-76.81 5.05Q-75.61 4.00-74.14 3.21L-74.14 3.21Q-71.21 1.63-67.60 1.05Q-63.99 0.46-60.23 0.46L-60.23 0.46L-57.00 0.46L-57.00-4.42Q-57.00-5.81-57.43-6.62Q-57.86-7.43-58.60-7.84Q-59.33-8.26-60.31-8.39Q-61.28-8.52-62.41-8.52L-62.41-8.52Q-65.46-8.52-68.56-7.75Q-71.66-6.98-74.48-5.85L-74.48-5.85ZM-57.00 13.70L-57.00 5.99L-57.75 5.99Q-60.42 6.03-62.84 6.39Q-65.27 6.74-67.11 7.61Q-68.95 8.47-70.06 9.88Q-71.17 11.29-71.17 13.44L-71.17 13.44Q-71.17 15.80-69.80 17.08Q-68.43 18.36-65.95 18.36L-65.95 18.36Q-64.78 18.36-63.54 18.04Q-62.30 17.72-61.10 17.14Q-59.89 16.56-58.84 15.69Q-57.79 14.83-57.00 13.70L-57.00 13.70ZM-24.29-8.22L-23.80-8.22Q-22.45-10.21-21.28-11.49L-21.28-11.49Q-20.15-12.73-18.91-13.54Q-17.67-14.35-16.41-14.86Q-15.15-15.36-13.87-15.57Q-12.60-15.78-11.35-15.78L-11.35-15.78Q-10.30-15.78-9.31-15.65Q-8.31-15.51-7.44-15.33L-7.44-15.33Q-7.56-14.27-7.75-13.09Q-7.93-11.90-8.16-10.70Q-8.38-9.50-8.67-8.33Q-8.95-7.17-9.25-6.15L-9.25-6.15Q-11.39-6.57-12.97-6.85Q-14.55-7.13-15.79-7.13L-15.79-7.13Q-16.96-7.13-17.92-6.81Q-18.87-6.49-19.81-5.70Q-20.75-4.91-21.75-3.61Q-22.75-2.32-23.99-0.36L-23.99-0.36L-23.99 24.19L-34.29 24.19L-34.29 0.09Q-34.29-2.09-34.33-3.99Q-34.36-5.89-34.48-7.56Q-34.59-9.24-34.82-10.74Q-35.04-12.24-35.42-13.67L-35.42-13.67Q-32.97-14.31-30.55-14.84Q-28.12-15.36-25.64-15.78L-25.64-15.78Q-25.38-14.99-25.15-14.22Q-24.93-13.45-24.78-12.56Q-24.63-11.68-24.51-10.63Q-24.40-9.57-24.29-8.22L-24.29-8.22ZM26.28-14.91L36.66-14.91L36.66 23.89Q36.66 28.29 35.25 31.35Q33.84 34.42 31.26 36.33Q28.69 38.25 25.10 39.12Q21.51 39.98 17.18 39.98L17.18 39.98Q13.84 39.98 10.40 39.40Q6.96 38.81 4.02 37.65L4.02 37.65Q4.81 35.77 5.64 33.96Q6.47 32.16 7.33 30.35L7.33 30.35Q10.04 31.22 12.82 31.84Q15.60 32.46 18.20 32.46L18.20 32.46Q18.95 32.46 19.83 32.40Q20.72 32.35 21.62 32.12Q22.52 31.90 23.39 31.43Q24.25 30.96 24.91 30.15Q25.57 29.34 25.98 28.12Q26.39 26.90 26.43 25.17L26.43 25.17L26.43 17.53L26.09 17.53Q24.85 19.41 23.52 20.82Q22.18 22.23 20.64 23.19Q19.10 24.15 17.26 24.62Q15.42 25.09 13.16 25.09L13.16 25.09Q9.47 25.09 7.07 23.93Q4.66 22.76 3.20 20.58L3.20 20.58Q1.77 18.32 1.17 15.17Q0.56 12.01 0.56 7.98L0.56 7.98L0.56-14.91L10.87-14.91L10.87 10.95Q10.87 14.19 12.37 15.88Q13.87 17.57 16.51 17.57L16.51 17.57Q17.93 17.57 19.31 16.89Q20.68 16.22 21.96 15.13Q23.24 14.04 24.33 12.63Q25.42 11.22 26.28 9.79L26.28 9.79L26.28-14.91ZM86.59-29.88L97.11-29.88L117.53 24.19L106.93 24.19L100.76 7.57L82.94 7.57L76.77 24.19L66.17 24.19L86.59-29.88ZM97.98 0.01L91.85-18.71L85.72 0.01L97.98 0.01ZM126.06-29.88L147.01-29.88Q150.95-29.88 154.06-28.81Q157.16-27.73 159.30-25.67Q161.44-23.60 162.57-20.55Q163.70-17.51 163.70-13.56L163.70-13.56Q163.70-9.27 162.31-6.06Q160.92-2.84 158.32-0.70Q155.73 1.44 152.04 2.53Q148.36 3.62 143.81 3.62L143.81 3.62Q141.71 3.62 139.84 3.49Q137.98 3.36 136.55 3.21L136.55 3.21L136.55 24.19L126.06 24.19L126.06-29.88ZM136.55-22.66L136.55-3.97Q137.76-3.78 138.94-3.69Q140.13-3.60 141.25-3.60L141.25-3.60Q144.15-3.60 146.35-4.08Q148.55-4.57 150.03-5.70Q151.52-6.83 152.27-8.63Q153.02-10.44 153.02-13.11L153.02-13.11Q153.02-15.74 152.46-17.56Q151.89-19.39 150.65-20.51Q149.41-21.64 147.46-22.15Q145.50-22.66 142.72-22.66L142.72-22.66L136.55-22.66ZM175.62-29.88L186.11-29.88L186.11 24.19L175.62 24.19L175.62-29.88Z"/></g>
<g transform="matrix(1 0 0 1 535.2613 935.0799)" style="" id="859968">
		
<path xml:space="preserve" font-family="Abhaya Libre" font-size="36" font-style="normal" font-weight="bold" style="stroke: none; stroke-width: 0; stroke-dasharray: none; stroke-linecap: butt; stroke-dashoffset: 0; stroke-linejoin: miter; stroke-miterlimit: 4; is-custom-font: none; font-file-url: none; fill: rgb(82,113,255); fill-rule: nonzero; opacity: 1; white-space: pre;" d="M-138.38-5.04L-138.38-5.04Q-138.38-8.03-141.47-9.19L-141.47-9.19Q-143.09-9.78-145.27-9.78L-145.27-9.78L-156.20-9.78L-156.20-8.84L-153.39-8.84L-153.39 10.36L-156.20 10.36L-156.20 11.31L-144.81 11.31Q-140.10 11.31-137.99 8.46L-137.99 8.46Q-136.90 6.98-136.90 5.19L-136.90 5.19Q-136.90 1.68-140.45 0.38L-140.45 0.38Q-141.40 0.02-142.52-0.15L-142.52-0.15Q-139.57-1.14-138.66-3.53L-138.66-3.53Q-138.38-4.30-138.38-5.04ZM-149.06-8.84L-146.88-8.84Q-142.91-8.77-142.88-4.76L-142.88-4.76Q-142.88-1.87-144.95-0.96L-144.95-0.96Q-145.72-0.61-146.71-0.61L-146.71-0.61L-149.06-0.61L-149.06-8.84ZM-149.06 0.38L-145.90 0.38Q-142.95 0.38-141.96 3.01L-141.96 3.01Q-141.61 3.93-141.61 5.05L-141.61 5.05Q-141.61 8.67-144.00 9.90L-144.00 9.90Q-144.95 10.36-146.18 10.36L-146.18 10.36L-149.06 10.36L-149.06 0.38ZM-131.52 16.93L-131.52 16.93Q-132.12 16.93-132.47 16.02L-132.47 16.02Q-132.93 14.82-133.31 14.54L-133.31 14.54Q-133.70 14.26-134.26 14.26L-134.26 14.26Q-135.46 14.26-135.77 15.28L-135.77 15.28Q-135.84 15.53-135.84 15.74L-135.84 15.74Q-135.84 16.97-134.37 17.67L-134.37 17.67Q-133.45 18.09-132.36 18.09L-132.36 18.09Q-129.48 18.09-127.48 14.68L-127.48 14.68Q-126.70 13.42-126.00 11.63L-126.00 11.63L-120.76-1.77Q-120.38-2.72-119.88-2.82L-119.88-2.82Q-119.74-2.86-119.57-2.86L-119.57-2.86Q-118.83-2.86-118.72-3.32L-118.72-3.32Q-118.69-3.49-118.69-3.74L-118.69-3.74L-124.10-3.74L-124.10-2.86L-121.46-2.86L-125.54 7.41L-129.94-2.86L-127.72-2.86L-127.72-3.74L-135.56-3.74L-135.56-2.86L-133.98-2.86L-127.30 11.80Q-129.09 16.16-130.75 16.79L-130.75 16.79Q-131.13 16.93-131.52 16.93ZM-99.28-10.14L-99.28-10.14Q-103.82-10.14-106.98-7.25L-106.98-7.25Q-110.32-4.19-110.32 0.66L-110.32 0.66Q-110.32 6.25-106.35 9.34L-106.35 9.34Q-103.36 11.66-99.39 11.66L-99.39 11.66Q-94.89 11.66-91.76 8.74L-91.76 8.74Q-88.45 5.65-88.45 0.80L-88.45 0.80Q-88.45-4.97-92.53-7.99L-92.53-7.99Q-95.41-10.14-99.28-10.14ZM-99.28 10.64L-99.28 10.64Q-103.64 10.64-104.87 6.04L-104.87 6.04Q-105.43 3.89-105.43 0.80L-105.43 0.80Q-105.43-8.59-100.05-9.08L-100.05-9.08Q-99.70-9.12-99.39-9.12L-99.39-9.12Q-94.68-9.12-93.66-3.39L-93.66-3.39Q-93.34-1.63-93.34 0.66L-93.34 0.66Q-93.34 9.31-97.70 10.47L-97.70 10.47Q-98.44 10.64-99.28 10.64ZM-78.15 17.07L-80.16 17.07L-80.16 9.97Q-78.68 11.63-75.87 11.66L-75.87 11.66Q-72.53 11.66-70.42 9.09L-70.42 9.09Q-68.55 6.81-68.55 3.33L-68.55 3.33Q-68.55-0.96-71.05-3.00L-71.05-3.00Q-72.56-4.23-74.53-4.23L-74.53-4.23Q-77.45-4.23-79.21-2.05L-79.21-2.05Q-79.88-1.21-80.23-0.22L-80.23-0.22L-80.40-3.74L-86.24-3.74L-86.24-2.86L-84.02-2.86L-84.02 15.18Q-84.02 16.65-85.01 16.93L-85.01 16.93Q-85.46 17.07-86.24 17.07L-86.24 17.07L-86.24 17.99L-77.27 17.99Q-77.27 17.22-77.73 17.11L-77.73 17.11Q-77.94 17.07-78.15 17.07L-78.15 17.07ZM-76.15-2.61L-76.15-2.61Q-72.81-2.54-72.77 3.79L-72.77 3.79Q-72.77 9.80-75.62 10.64L-75.62 10.64Q-76.01 10.75-76.46 10.75L-76.46 10.75Q-78.61 10.75-79.59 8.25L-79.59 8.25Q-80.19 6.67-80.19 4.45L-80.19 4.45Q-80.19-0.01-78.15-1.84L-78.15-1.84Q-77.24-2.61-76.15-2.61ZM-60.61 10.68L-60.61 10.68Q-58.25 10.68-57.69 9.09L-57.69 9.09Q-57.59 8.74-57.59 8.39L-57.59 8.39Q-57.59 6.70-59.80 5.54L-59.80 5.54Q-60.29 5.30-61.35 4.84L-61.35 4.84Q-64.05 3.64-64.97 2.66L-64.97 2.66Q-65.92 1.54-65.92 0.06L-65.92 0.06Q-65.92-2.72-62.89-3.77L-62.89-3.77Q-61.56-4.23-59.91-4.23L-59.91-4.23Q-57.34-4.23-55.69-3.25L-55.69-3.25Q-55.69-4.30-55.13-4.41L-55.13-4.41Q-54.95-4.44-54.77-4.44L-54.77-4.44L-54.77-0.05L-55.83-0.05Q-55.97-3.25-59.34-3.28L-59.34-3.28Q-61.70-3.28-62.26-1.80L-62.26-1.80Q-62.40-1.42-62.40-1.03L-62.40-1.03Q-62.40 0.45-60.29 1.54L-60.29 1.54Q-59.84 1.75-58.82 2.20L-58.82 2.20Q-56.04 3.40-55.13 4.42L-55.13 4.42Q-54.07 5.61-54.07 7.23L-54.07 7.23Q-54.07 10.22-57.16 11.24L-57.16 11.24Q-58.43 11.66-59.98 11.66L-59.98 11.66Q-62.93 11.66-64.93 10.50L-64.93 10.50Q-64.93 11.41-65.39 11.56L-65.39 11.56Q-65.60 11.59-65.88 11.59L-65.88 11.59L-65.88 6.25L-64.76 6.25Q-64.69 10.64-60.61 10.68ZM-52.31-3.63L-52.31-2.72L-49.89-2.72L-49.89 6.42Q-49.57 11.52-45.14 11.70L-45.14 11.70Q-42.36 11.70-41.38 9.48L-41.38 9.48Q-41.03 8.71-40.82 7.62L-40.82 7.62L-41.77 7.48Q-42.54 10.61-44.26 10.64L-44.26 10.64Q-45.74 10.64-45.98 8.64L-45.98 8.64Q-46.02 8.29-46.02 7.93L-46.02 7.93L-46.02-2.72L-41.10-2.72L-41.10-3.63L-46.02-3.63L-46.02-7.71L-49.89-6.97L-49.89-3.63L-52.31-3.63ZM-31.11 10.39L-31.11 10.39L-33.68 10.39L-33.68 2.77Q-33.43-0.61-31.78-1.77L-31.78-1.77Q-31.39-2.02-31.11-2.02L-31.11-2.02Q-30.66-2.02-30.20-1.21L-30.20-1.21Q-29.60-0.08-28.93 0.13L-28.93 0.13Q-28.62 0.23-28.27 0.23L-28.27 0.23Q-27.00 0.23-26.47-1.00L-26.47-1.00Q-26.30-1.38-26.30-1.80L-26.30-1.80Q-26.30-3.49-27.95-3.91L-27.95-3.91Q-28.37-4.02-28.79-4.02L-28.79-4.02Q-30.94-4.02-32.63-2.26L-32.63-2.26Q-33.36-1.45-33.79-0.43L-33.79-0.43L-34.00-3.74L-39.80-3.74L-39.80-2.86L-37.58-2.86L-37.58 8.50Q-37.58 10.01-38.64 10.29L-38.64 10.29Q-39.09 10.39-39.80 10.39L-39.80 10.39L-39.80 11.31L-30.27 11.31Q-30.27 10.50-30.80 10.43L-30.80 10.43Q-30.94 10.39-31.11 10.39ZM-17.26-3.32L-17.26-3.32Q-15.08-3.32-14.66-0.75L-14.66-0.75Q-14.55-0.19-14.55 0.41L-14.55 0.41Q-14.55 2.06-15.75 2.48L-15.75 2.48Q-16.52 2.70-18.00 2.66L-18.00 2.66L-20.71 2.56Q-20.57-2.44-18.07-3.21L-18.07-3.21Q-17.65-3.32-17.26-3.32ZM-10.83 7.76L-10.83 7.76L-11.67 7.48Q-12.69 9.69-14.91 10.39L-14.91 10.39Q-15.64 10.64-16.42 10.64L-16.42 10.64Q-20.53 10.64-20.71 3.64L-20.71 3.64Q-20.71 3.61-20.71 3.57L-20.71 3.57L-17.16 3.64Q-11.88 3.75-10.83 2.13L-10.83 2.13Q-10.48 1.57-10.48 0.80L-10.48 0.80Q-10.48-1.98-13.29-3.39L-13.29-3.39Q-15.05-4.23-17.26-4.23L-17.26-4.23Q-21.30-4.23-23.45-1.31L-23.45-1.31Q-24.96 0.76-24.96 3.72L-24.96 3.72Q-24.96 8.53-21.41 10.61L-21.41 10.61Q-19.51 11.66-17.16 11.66L-17.16 11.66Q-13.15 11.66-11.36 8.81L-11.36 8.81Q-11.04 8.29-10.83 7.76ZM-0.67-3.32L-0.67-3.32Q1.51-3.32 1.93-0.75L1.93-0.75Q2.04-0.19 2.04 0.41L2.04 0.41Q2.04 2.06 0.84 2.48L0.84 2.48Q0.07 2.70-1.41 2.66L-1.41 2.66L-4.11 2.56Q-3.97-2.44-1.48-3.21L-1.48-3.21Q-1.05-3.32-0.67-3.32ZM5.77 7.76L5.77 7.76L4.92 7.48Q3.90 9.69 1.69 10.39L1.69 10.39Q0.95 10.64 0.18 10.64L0.18 10.64Q-3.94 10.64-4.11 3.64L-4.11 3.64Q-4.11 3.61-4.11 3.57L-4.11 3.57L-0.56 3.64Q4.71 3.75 5.77 2.13L5.77 2.13Q6.12 1.57 6.12 0.80L6.12 0.80Q6.12-1.98 3.30-3.39L3.30-3.39Q1.55-4.23-0.67-4.23L-0.67-4.23Q-4.71-4.23-6.86-1.31L-6.86-1.31Q-8.37 0.76-8.37 3.72L-8.37 3.72Q-8.37 8.53-4.82 10.61L-4.82 10.61Q-2.92 11.66-0.56 11.66L-0.56 11.66Q3.45 11.66 5.24 8.81L5.24 8.81Q5.55 8.29 5.77 7.76ZM31.75 5.54L31.75 5.54Q31.75 2.56 28.44 0.52L28.44 0.52Q27.95 0.23 24.64-1.38L24.64-1.38Q21.62-2.89 20.88-4.34L20.88-4.34Q20.50-5.11 20.50-5.92L20.50-5.92Q20.50-8.03 22.54-8.80L22.54-8.80Q23.34-9.12 24.26-9.12L24.26-9.12Q27.14-9.12 28.62-7.04L28.62-7.04Q29.60-5.64 29.60-3.70L29.60-3.70L30.87-3.70L30.87-10.00Q29.88-10.00 29.74-9.33L29.74-9.33Q29.71-9.08 29.71-8.77L29.71-8.77Q26.93-10.14 23.73-10.14L23.73-10.14Q19.65-10.14 17.51-7.96L17.51-7.96Q16.10-6.52 16.10-4.55L16.10-4.55Q16.10-1.59 19.41 0.41L19.41 0.41Q19.93 0.69 23.27 2.34L23.27 2.34Q26.37 3.86 27.11 5.33L27.11 5.33Q27.49 6.07 27.49 6.88L27.49 6.88Q27.49 9.34 25.21 10.25L25.21 10.25Q24.29 10.64 23.17 10.64L23.17 10.64Q18.98 10.64 17.65 6.53L17.65 6.53Q17.30 5.37 17.19 4.00L17.19 4.00L15.93 4.00L15.93 11.38Q16.80 11.38 16.98 10.85L16.98 10.85Q17.05 10.54 17.05 9.87L17.05 9.87Q19.79 11.66 23.48 11.66L23.48 11.66Q27.81 11.66 30.13 9.41L30.13 9.41Q31.75 7.83 31.75 5.54ZM38.71 3.72L38.71 3.72Q38.71-1.63 40.61-2.86L40.61-2.86Q41.38-3.32 42.40-3.32L42.40-3.32Q45.07-3.32 45.77-0.29L45.77-0.29Q46.12 1.18 46.12 3.57L46.12 3.57Q46.12 9.23 43.98 10.39L43.98 10.39Q43.28 10.75 42.40 10.75L42.40 10.75Q39.76 10.75 39.06 7.72L39.06 7.72Q38.71 6.21 38.71 3.72ZM42.54-4.23L42.54-4.23Q38.53-4.23 36.21-1.49L36.21-1.49Q34.45 0.62 34.45 3.57L34.45 3.57Q34.45 7.65 37.34 9.97L37.34 9.97Q39.45 11.66 42.29 11.66L42.29 11.66Q46.20 11.66 48.52 8.85L48.52 8.85Q50.34 6.63 50.34 3.57L50.34 3.57Q50.34-0.54 47.39-2.72L47.39-2.72Q45.35-4.23 42.54-4.23ZM60.61 10.39L60.61 10.39L58.82 10.39L58.82-11.54L52.24-11.54L52.24-10.63L54.95-10.63L54.95 8.43Q54.95 9.94 53.89 10.25L53.89 10.25Q53.37 10.39 52.24 10.39L52.24 10.39L52.24 11.31L61.49 11.31Q61.49 10.54 61.03 10.43L61.03 10.43Q60.82 10.39 60.61 10.39ZM80.40 10.39L80.40 10.39L79.03 10.39L79.03-3.74L73.05-3.74L73.05-2.86L75.16-2.86L75.13 5.61Q74.95 8.43 73.09 9.55L73.09 9.55Q72.39 9.94 71.68 9.94L71.68 9.94Q69.36 9.94 69.01 7.30L69.01 7.30Q68.94 6.84 68.94 6.39L68.94 6.39L68.94-3.74L62.82-3.74L62.82-2.86L65.07-2.86L65.07 5.82Q65.11 11.63 70.10 11.66L70.10 11.66Q72.95 11.66 74.64 9.27L74.64 9.27Q74.99 8.74 75.23 8.22L75.23 8.22L75.41 11.31L81.25 11.31Q81.25 10.50 80.79 10.43L80.79 10.43Q80.61 10.39 80.40 10.39ZM82.65-3.63L82.65-2.72L85.08-2.72L85.08 6.42Q85.39 11.52 89.82 11.70L89.82 11.70Q92.60 11.70 93.59 9.48L93.59 9.48Q93.94 8.71 94.15 7.62L94.15 7.62L93.20 7.48Q92.43 10.61 90.70 10.64L90.70 10.64Q89.23 10.64 88.98 8.64L88.98 8.64Q88.95 8.29 88.95 7.93L88.95 7.93L88.95-2.72L93.87-2.72L93.87-3.63L88.95-3.63L88.95-7.71L85.08-6.97L85.08-3.63L82.65-3.63ZM102.87 10.39L102.87 10.39L101.43 10.39L101.43-3.74L95.27-3.74L95.27-2.86L97.56-2.86L97.56 8.50Q97.56 10.01 96.40 10.29L96.40 10.29Q95.98 10.39 95.27 10.39L95.27 10.39L95.27 11.31L103.71 11.31Q103.71 10.50 103.18 10.43L103.18 10.43Q103.04 10.39 102.87 10.39ZM101.78-8.52L101.78-8.52Q101.78-9.96 100.48-10.66L100.48-10.66Q99.95-10.94 99.39-10.94L99.39-10.94Q97.95-10.94 97.28-9.64L97.28-9.64Q97.00-9.08 97.00-8.52L97.00-8.52Q97.00-7.04 98.30-6.41L98.30-6.41Q98.82-6.16 99.39-6.16L99.39-6.16Q100.83-6.16 101.50-7.39L101.50-7.39Q101.78-7.92 101.78-8.52ZM109.97 3.72L109.97 3.72Q109.97-1.63 111.87-2.86L111.87-2.86Q112.64-3.32 113.66-3.32L113.66-3.32Q116.33-3.32 117.04-0.29L117.04-0.29Q117.39 1.18 117.39 3.57L117.39 3.57Q117.39 9.23 115.24 10.39L115.24 10.39Q114.54 10.75 113.66 10.75L113.66 10.75Q111.02 10.75 110.32 7.72L110.32 7.72Q109.97 6.21 109.97 3.72ZM113.80-4.23L113.80-4.23Q109.79-4.23 107.47-1.49L107.47-1.49Q105.71 0.62 105.71 3.57L105.71 3.57Q105.71 7.65 108.60 9.97L108.60 9.97Q110.71 11.66 113.55 11.66L113.55 11.66Q117.46 11.66 119.78 8.85L119.78 8.85Q121.61 6.63 121.61 3.57L121.61 3.57Q121.61-0.54 118.65-2.72L118.65-2.72Q116.61-4.23 113.80-4.23ZM130.78 10.39L130.78 10.39L129.69 10.39L129.73 1.71Q129.97-1.10 131.84-2.16L131.84-2.16Q132.50-2.51 133.17-2.51L133.17-2.51Q135.14-2.51 135.67-0.43L135.67-0.43Q135.84 0.20 135.84 0.97L135.84 0.97L135.84 8.50Q135.84 9.97 135.04 10.25L135.04 10.25Q134.65 10.39 133.91 10.39L133.91 10.39L133.91 11.31L141.96 11.31Q141.96 10.54 141.50 10.43L141.50 10.43Q141.29 10.39 141.08 10.39L141.08 10.39L139.71 10.39L139.71 1.50Q139.71-2.65 136.83-3.84L136.83-3.84Q135.91-4.23 134.86-4.23L134.86-4.23Q132.33-4.23 130.57-2.23L130.57-2.23Q130.01-1.56 129.66-0.82L129.66-0.82L129.48-3.74L123.57-3.74L123.57-2.86L125.82-2.86L125.82 8.50Q125.82 10.04 124.66 10.29L124.66 10.29Q124.21 10.39 123.57 10.39L123.57 10.39L123.57 11.31L131.66 11.31Q131.66 10.54 131.20 10.43L131.20 10.43Q130.99 10.39 130.78 10.39ZM149.41 10.68L149.41 10.68Q151.77 10.68 152.33 9.09L152.33 9.09Q152.44 8.74 152.44 8.39L152.44 8.39Q152.44 6.70 150.22 5.54L150.22 5.54Q149.73 5.30 148.68 4.84L148.68 4.84Q145.97 3.64 145.05 2.66L145.05 2.66Q144.11 1.54 144.11 0.06L144.11 0.06Q144.11-2.72 147.13-3.77L147.13-3.77Q148.46-4.23 150.12-4.23L150.12-4.23Q152.68-4.23 154.34-3.25L154.34-3.25Q154.34-4.30 154.90-4.41L154.90-4.41Q155.07-4.44 155.25-4.44L155.25-4.44L155.25-0.05L154.20-0.05Q154.05-3.25 150.68-3.28L150.68-3.28Q148.32-3.28 147.76-1.80L147.76-1.80Q147.62-1.42 147.62-1.03L147.62-1.03Q147.62 0.45 149.73 1.54L149.73 1.54Q150.19 1.75 151.21 2.20L151.21 2.20Q153.98 3.40 154.90 4.42L154.90 4.42Q155.95 5.61 155.95 7.23L155.95 7.23Q155.95 10.22 152.86 11.24L152.86 11.24Q151.59 11.66 150.05 11.66L150.05 11.66Q147.09 11.66 145.09 10.50L145.09 10.50Q145.09 11.41 144.63 11.56L144.63 11.56Q144.42 11.59 144.14 11.59L144.14 11.59L144.14 6.25L145.27 6.25Q145.34 10.64 149.41 10.68Z"/></g>
<g transform="matrix(20.437 0 0 20.437 425.3755 416.7662)" id="644345">
<path style="stroke: none; stroke-width: 1; stroke-dasharray: none; stroke-linecap: butt; stroke-dashoffset: 0; stroke-linejoin: miter; stroke-miterlimit: 4; is-custom-font: none; font-file-url: none; fill: rgb(255,255,255); fill-rule: nonzero; opacity: 1;" vector-effect="non-scaling-stroke" transform=" translate(-11.9999, -11.9998)" d="M 8.851 18.56 s -0.917 0.534 0.653 0.714 c 1.902 0.218 2.874 0.187 4.969 -0.211 c 0 0 0.552 0.346 1.321 0.646 c -4.699 2.013 -10.633 -0.118 -6.943 -1.149 M 8.276 15.933 s -1.028 0.761 0.542 0.924 c 2.032 0.209 3.636 0.227 6.413 -0.308 c 0 0 0.384 0.389 0.987 0.602 c -5.679 1.661 -12.007 0.13 -7.942 -1.218 M 13.116 11.475 c 1.158 1.333 -0.304 2.533 -0.304 2.533 s 2.939 -1.518 1.589 -3.418 c -1.261 -1.772 -2.228 -2.652 3.007 -5.688 c 0 -0.001 -8.216 2.051 -4.292 6.573 M 19.33 20.504 s 0.679 0.559 -0.747 0.991 c -2.712 0.822 -11.288 1.069 -13.669 0.033 c -0.856 -0.373 0.75 -0.89 1.254 -0.998 c 0.527 -0.114 0.828 -0.093 0.828 -0.093 c -0.953 -0.671 -6.156 1.317 -2.643 1.887 c 9.58 1.553 17.462 -0.7 14.977 -1.82 M 9.292 13.21 s -4.362 1.036 -1.544 1.412 c 1.189 0.159 3.561 0.123 5.77 -0.062 c 1.806 -0.152 3.618 -0.477 3.618 -0.477 s -0.637 0.272 -1.098 0.587 c -4.429 1.165 -12.986 0.623 -10.522 -0.568 c 2.082 -1.006 3.776 -0.892 3.776 -0.892 M 17.116 17.584 c 4.503 -2.34 2.421 -4.589 0.968 -4.285 c -0.355 0.074 -0.515 0.138 -0.515 0.138 s 0.132 -0.207 0.385 -0.297 c 2.875 -1.011 5.086 2.981 -0.928 4.562 c 0 -0.001 0.07 -0.062 0.09 -0.118 M 14.401 0 s 2.494 2.494 -2.365 6.33 c -3.896 3.077 -0.888 4.832 -0.001 6.836 c -2.274 -2.053 -3.943 -3.858 -2.824 -5.539 c 1.644 -2.469 6.197 -3.665 5.19 -7.627 M 9.734 23.924 c 4.322 0.277 10.959 -0.153 11.116 -2.198 c 0 0 -0.302 0.775 -3.572 1.391 c -3.688 0.694 -8.239 0.613 -10.937 0.168 c 0 -0.001 0.553 0.457 3.393 0.639" stroke-linecap="round"/>
</g>
</svg>